<?xml version="1.0" encoding="UTF-8"?>
<svg version="1.1" xmlns="http://www.w3.org/2000/svg" width="64" height="64">
<path d="M0 0 C3.3 0 6.6 0 10 0 C10 0.99 10 1.98 10 3 C10.825 3.04125 11.65 3.0825 12.5 3.125 C20.10506172 5.02626543 25.05457412 10.46538838 29 17 C29 17.99 29 18.98 29 20 C29.66 20 30.32 20 31 20 C31.33 17.36 31.66 14.72 32 12 C32.66 12 33.32 12 34 12 C35.67491717 28.63074322 35.67491717 28.63074322 31.69140625 34.265625 C27.38614184 37.81046423 24.67659525 40 19 40 C18.34 41.32 17.68 42.64 17 44 C9.08 44 1.16 44 -7 44 C-7.66 42.68 -8.32 41.36 -9 40 C-9.845625 39.9175 -10.69125 39.835 -11.5625 39.75 C-16.08793151 38.76263312 -18.78697955 37.11278406 -22.20703125 34.0078125 C-26.06326706 27.53874588 -24.59252229 19.25656926 -24 12 C-23.34 12 -22.68 12 -22 12 C-21.67 14.64 -21.34 17.28 -21 20 C-20.34 20 -19.68 20 -19 20 C-18.89816406 19.25878906 -18.79632812 18.51757812 -18.69140625 17.75390625 C-17.37012806 12.49118802 -13.33211414 8.53058314 -8.86328125 5.59765625 C-5.67917224 3.94380295 -3.63340333 3 0 3 C0 2.01 0 1.02 0 0 Z M3 2 C1.99782936 5.58327753 1.99782936 5.58327753 3 9 C4.32 9 5.64 9 7 9 C7.33 7.02 7.66 5.04 8 3 C6.35 2.67 4.7 2.34 3 2 Z M-11.56640625 12.52734375 C-16.09442915 17.83932285 -17.4748831 21.69871078 -17.3125 28.58984375 C-16.85479437 32.11989842 -15.70238469 33.72430763 -13 36 C-7.22457872 38.65763288 -1.28980113 38.33138205 4.9375 38.3125 C6.52594727 38.33666992 6.52594727 38.33666992 8.14648438 38.36132812 C15.05444205 38.36563752 20.74827244 38.21182906 25.91015625 33.11328125 C27.93025894 29.19616456 27.58233426 25.28148031 27 21 C25.13588497 15.32998345 20.86503678 11.27474519 16 8 C12.75381554 6.60794936 12.75381554 6.60794936 10 6 C9.34 7.65 8.68 9.3 8 11 C6.02 11 4.04 11 2 11 C1.34 9.35 0.68 7.7 0 6 C-4.30552332 6 -8.58366871 9.61898869 -11.56640625 12.52734375 Z M-21 24 C-21 25.65 -21 27.3 -21 29 C-20.67 29 -20.34 29 -20 29 C-20 27.35 -20 25.7 -20 24 C-20.33 24 -20.66 24 -21 24 Z M30 24 C30 25.65 30 27.3 30 29 C30.33 29 30.66 29 31 29 C31 27.35 31 25.7 31 24 C30.67 24 30.34 24 30 24 Z M-6 40 C-3.63431778 42.36568222 -3.14767774 42.25571704 0.0625 42.265625 C0.85914063 42.26820312 1.65578125 42.27078125 2.4765625 42.2734375 C3.30929688 42.26570313 4.14203125 42.25796875 5 42.25 C5.83273438 42.25773437 6.66546875 42.26546875 7.5234375 42.2734375 C8.71839844 42.26957031 8.71839844 42.26957031 9.9375 42.265625 C10.66839844 42.26336914 11.39929688 42.26111328 12.15234375 42.25878906 C14.24697364 42.15448561 14.24697364 42.15448561 16 40 C8.74 40 1.48 40 -6 40 Z " fill="#7444FF" transform="translate(27,10)"/>
<path d="M0 0 C0.69134033 -0.00478363 1.38268066 -0.00956726 2.0949707 -0.01449585 C3.55064176 -0.01788486 5.00638996 -0.008752 6.46191406 0.01220703 C8.68207497 0.03899704 10.89718261 0.01243603 13.1171875 -0.01953125 C14.53646942 -0.01622696 15.95574821 -0.00982031 17.375 0 C18.65761719 0.00563965 19.94023438 0.0112793 21.26171875 0.01708984 C25.52806052 0.82280576 27.00808164 2.32059527 29.6875 5.6640625 C30.59176149 8.77046669 30.40543886 11.51880653 29.6875 14.6640625 C27.00980401 18.23432382 25.02227058 19.88791911 20.6875 20.6640625 C16.75326417 20.91304089 12.81632445 20.89523826 8.875 20.9140625 C7.27301758 20.945 7.27301758 20.945 5.63867188 20.9765625 C-0.44632703 21.00666763 -5.00607849 20.76249143 -10.3125 17.6640625 C-12.32721597 14.64198855 -12.64969034 13.74679551 -12.75 10.2890625 C-12.78996094 9.53882813 -12.82992188 8.78859375 -12.87109375 8.015625 C-11.28138597 1.32328875 -6.14673118 0.02702708 0 0 Z M-9.3125 6.6640625 C-9.83495555 11.36922275 -9.83495555 11.36922275 -8 15.5390625 C-3.1276436 18.7873001 2.95077552 17.88768542 8.5625 17.9140625 C10.19638672 17.945 10.19638672 17.945 11.86328125 17.9765625 C13.44302734 17.98429687 13.44302734 17.98429687 15.0546875 17.9921875 C16.01487793 18.0015332 16.97506836 18.01087891 17.96435547 18.02050781 C21.47826887 17.56055501 24.16563176 16.18593074 26.6875 13.6640625 C27.15469457 8.98395663 27.15469457 8.98395663 25.4375 4.7890625 C20.53942615 1.64030074 14.3378031 2.48018859 8.75 2.4765625 C7.76064453 2.46431641 6.77128906 2.45207031 5.75195312 2.43945312 C4.79353516 2.43751953 3.83511719 2.43558594 2.84765625 2.43359375 C1.97761963 2.42948486 1.10758301 2.42537598 0.21118164 2.42114258 C-3.75209158 2.80263207 -6.49287366 3.84443616 -9.3125 6.6640625 Z " fill="#833FFF" transform="translate(23.3125,26.3359375)"/>
<path d="M0 0 C2.64 0 5.28 0 8 0 C7.67 1.32 7.34 2.64 7 4 C5.02 4 3.04 4 1 4 C0.67 2.68 0.34 1.36 0 0 Z " fill="#A5B9FF" transform="translate(28,38)"/>
<path d="M0 0 C1.65 0 3.3 0 5 0 C5 1.65 5 3.3 5 5 C3.35 5 1.7 5 0 5 C0 3.35 0 1.7 0 0 Z " fill="#AAB8FF" transform="translate(39,33)"/>
<path d="M0 0 C1.65 0 3.3 0 5 0 C5 1.65 5 3.3 5 5 C3.35 5 1.7 5 0 5 C0 3.35 0 1.7 0 0 Z " fill="#AAB8FF" transform="translate(20,33)"/>
</svg>
